ply
format ascii 1.0
element vertex 440
property float x
property float y
property float z
property int32 angle_deficit
element face 876
property list uint8 int32 vertex_indices
end_header
3.189553019999999961 -3.184219360000000165 0.000000000000000000 1
2.506272549999999821 -3.745810749999999967 0.000000000000000000 1
1.726472970000000107 -4.163146969999999669 0.000000000000000000 1
0.880184948000000023 -4.420155529999999722 0.000000000000000000 1
3.750000000000000000 -2.500000000000000000 0.000000000000000000 1
0.000000000000000000 -4.506938929999999566 0.000000000000000000 1
0.806431592000000030 4.434204099999999649 0.000000000000000000 1
1.586834070000000096 4.218347549999999835 0.000000000000000000 1
2.970449690000000142 3.389532089999999886 0.000000000000000000 1
3.529004099999999866 2.803324700000000114 0.000000000000000000 1
3.973653790000000186 2.126634839999999915 0.000000000000000000 1
4.290046689999999607 1.381304260000000061 0.000000000000000000 1
4.467970369999999747 0.591389476999999997 0.000000000000000000 1
4.390094760000000207 -1.019592520000000002 0.000000000000000000 1
4.136808870000000304 -1.788662430000000025 0.000000000000000000 1
0.000000000000000000 4.506938929999999566 0.000000000000000000 1
-3.784123419999999793 -0.029112538300000001 -2.447868820000000056 1
-4.169070719999999675 -0.236680969999999991 -1.695680499999999924 1
-4.364645000000000330 -0.108469128999999997 -1.118306639999999907 1
-4.490633489999999561 -0.036827009199999997 -0.381255059999999979 1
-4.490891930000000087 0.027207775000000000 0.379009246999999994 1
-4.367564680000000088 0.110626340000000004 1.106635690000000061 1
-4.179603580000000207 0.247836053000000001 1.667930249999999948 1
-3.824479339999999894 0.072152152700000000 2.383411880000000149 1
3.322041029999999839 -2.891607759999999860 -0.956633210000000012 1
3.266576049999999842 -2.570336820000000078 -1.742225530000000022 1
3.158466100000000054 -2.167758699999999816 -2.374324080000000059 1
1.915558220000000089 -0.681213199999999963 -4.022323609999999938 1
2.461454629999999977 -1.064473629999999948 -3.622241970000000144 1
3.122240300000000079 -1.484053850000000008 -2.891660449999999827 1
3.572920799999999897 -1.637155530000000025 -2.206005100000000052 1
3.709364889999999804 -1.948338509999999912 -1.660448549999999912 1
3.798116209999999882 -2.255678179999999866 -0.893716693000000006 1
2.754481549999999945 -3.389634609999999881 -1.111624359999999978 1
2.759794470000000111 -3.096436499999999814 -1.762985110000000022 1
2.648635150000000049 -2.752448559999999933 -2.391915319999999845 1
2.576055049999999902 -2.307714939999999881 -2.889791010000000160 1
1.993145230000000101 -1.977297429999999911 -3.525644059999999858 1
1.718657370000000073 -1.316125750000000094 -3.953040600000000016 1
1.096667169999999913 -0.903111338999999957 -4.277173040000000093 1
2.236637120000000145 -3.700074910000000106 -1.272556779999999943 1
2.223790880000000136 -3.482307430000000092 -1.800219180000000030 1
2.221755739999999868 -3.175830359999999963 -2.300087449999999922 1
1.067825079999999982 -4.304874899999999727 -0.800188064999999948 1
1.081732029999999956 -4.076803680000000263 -1.588089110000000082 1
1.050988320000000087 -3.772398949999999918 -2.230903150000000057 1
0.351700485000000007 -0.656700850000000003 -4.444946769999999603 1
1.075908180000000103 -1.735914109999999955 -4.017651560000000011 1
0.990107417000000045 -2.490572450000000160 -3.623428819999999995 1
1.829278109999999957 -2.861142399999999864 -2.963124280000000166 1
1.608516810000000019 -3.464672329999999967 -2.391907219999999779 1
1.702919599999999978 -3.800516609999999851 -1.722973590000000055 1
1.877371429999999952 -4.000946520000000284 -0.883404315000000051 1
0.384111701999999999 -4.437647339999999829 -0.687199950000000004 1
0.368545860000000003 -4.259852890000000336 -1.424896120000000099 1
0.406890809999999992 -3.923751119999999926 -2.179705620000000010 1
0.510195315000000038 -3.302512650000000161 -3.024171110000000162 1
0.184850290000000000 -2.543333050000000206 -3.716152189999999855 1
0.442028849999999973 -2.054203750000000106 -3.987149000000000054 1
0.264879882000000011 -1.369580269999999933 -4.285625930000000139 1
0.543413758000000024 -4.364509580000000000 0.984000266000000012 1
0.333581149999999993 -4.122244829999999638 1.791178230000000093 1
0.109278380999999994 -3.769855740000000122 2.467538359999999820 1
-0.301445811999999980 -1.997249360000000085 4.028973099999999974 1
-0.083225563200000005 -2.532663819999999788 3.727088209999999791 1
-0.373953937999999986 -3.234480860000000124 3.116214279999999892 1
-0.615973353000000001 -3.790303230000000134 2.359380960000000194 1
-0.459841877000000010 -4.113094330000000021 1.784237150000000049 1
-0.291657357999999978 -4.383746150000000341 1.005089520000000070 1
-0.416005491999999977 -4.331636429999999649 -1.173185589999999889 1
-0.310884714000000006 -4.025992389999999865 -2.001807930000000013 1
-0.196764006999999991 -3.685850620000000077 -2.586172579999999943 1
1.184853200000000051 -4.199810499999999891 1.127038720000000049 1
1.030523419999999968 -4.016081329999999561 1.766808869999999976 1
0.895431340000000020 -3.686168429999999940 2.433693649999999931 1
0.616514921000000049 -3.320393800000000173 2.984525919999999832 1
0.681527494999999983 -2.640778060000000149 3.588078980000000140 1
0.316596419000000018 -2.098588229999999832 3.975951910000000034 1
0.257436751999999991 -1.408618090000000045 4.273408410000000046 1
1.699314589999999958 -4.061444279999999907 0.964106201999999968 1
1.595049380000000072 -3.847770929999999812 1.721329930000000008 1
1.434625510000000048 -3.620403769999999799 2.268705839999999974 1
3.014167070000000059 -3.194824220000000103 1.010145779999999993 1
2.731059790000000209 -3.139122959999999907 1.731969829999999932 1
2.372149709999999967 -3.026904109999999815 2.350161079999999902 1
0.387755334000000007 -0.666543125999999986 4.440480230000000361 1
0.940109431999999967 -1.789887430000000057 4.028026579999999690 1
1.466513989999999934 -2.167718890000000176 3.669173240000000114 1
1.627592209999999984 -2.981521610000000155 2.962089059999999829 1
1.860560060000000071 -3.443370579999999848 2.234729290000000201 1
2.138295170000000134 -3.586717839999999935 1.695773839999999977 1
2.366353989999999907 -3.705811259999999940 0.989864289999999980 1
3.544593809999999845 -2.625464440000000010 0.924819708000000018 1
3.231562610000000113 -2.640026810000000168 1.702868339999999980 1
2.876165630000000029 -2.661418439999999830 2.226437569999999866 1
2.614495279999999866 -2.374358650000000015 2.799881220000000059 1
2.176750419999999853 -1.938374639999999927 3.437580819999999981 1
1.665954230000000091 -1.419829250000000043 3.939692969999999850 1
1.045007589999999986 -0.902433394999999972 4.290229799999999649 1
3.954589369999999882 -1.963687179999999977 0.904243290000000033 1
3.634525299999999959 -2.065153839999999796 1.684596540000000031 1
3.209246160000000181 -2.134170290000000136 2.336355450000000111 1
4.234251500000000057 -1.248625040000000075 0.908046663000000032 1
3.923777340000000002 -1.424684760000000106 1.699042079999999899 1
3.544308190000000192 -1.594231839999999956 2.282280450000000016 1
3.016009809999999902 -1.384210350000000034 3.049614189999999780 1
4.380490299999999948 0.301251500999999977 1.016392229999999897 1
4.143408779999999680 0.077740468100000001 1.771615509999999949 1
3.781154869999999946 -0.129504472000000009 2.449203250000000054 1
0.787852227999999988 -0.179837807999999988 4.433897499999999603 1
1.259568330000000014 -0.305179864000000023 4.316578869999999846 1
1.812641020000000047 -0.495668977000000011 4.096479419999999649 1
2.641562219999999961 -0.425317049000000003 3.626810550000000077 1
3.676912549999999946 -0.941965461000000004 2.430126430000000060 1
4.100275520000000284 -0.705850661000000046 1.732632399999999961 1
4.385026930000000434 -0.478975653999999973 0.924456358000000034 1
4.261661529999999587 1.063156489999999899 1.010168189999999910 1
4.078882219999999670 0.803825796000000037 1.740426779999999951 1
3.762164830000000126 0.623220741999999994 2.402126309999999876 1
3.419709679999999974 0.386069745000000020 2.910160780000000003 1
2.911725039999999876 0.396083473999999991 3.417232040000000026 1
2.196265939999999972 0.357058643999999981 3.919365410000000161 1
4.041872500000000201 1.745775099999999913 0.963346123999999970 1
3.921952720000000170 1.429058069999999958 1.699582099999999985 1
3.726813320000000207 1.172668810000000006 2.246822359999999907 1
1.332597260000000006 0.335424571999999976 4.292339319999999958 1
3.740832090000000054 2.252602580000000021 1.115552539999999926 1
3.662697790000000175 1.968803520000000029 1.738090160000000051 1
3.561264749999999868 1.608522419999999897 2.245561840000000142 1
3.174160000000000093 1.256149170000000037 2.942668439999999830 1
2.974377159999999964 3.252359150000000199 0.942199647000000029 1
2.875738140000000165 3.005533699999999975 1.734761599999999904 1
2.704510210000000026 2.659307239999999961 2.434380770000000194 1
0.592145680999999979 0.450118094999999996 4.445138449999999963 1
1.752275110000000025 1.238548280000000057 3.963335750000000157 1
2.377989529999999796 1.573756809999999895 3.490122560000000096 1
3.207444189999999917 2.056100849999999980 2.407748220000000217 1
3.326075789999999976 2.480946540000000144 1.759154440000000097 1
3.475252390000000080 2.709684129999999858 0.944845676000000023 1
2.343930959999999786 3.714465380000000039 1.010561940000000103 1
2.336265089999999933 3.439494849999999992 1.739034530000000078 1
2.310338020000000103 3.106695649999999809 2.307223560000000173 1
1.883702280000000062 2.783568859999999923 3.002650500000000111 1
1.817446469999999925 2.052597759999999827 3.577182049999999780 1
1.182451369999999891 1.828948859999999899 3.945789580000000019 1
0.787640750000000001 1.199524880000000016 4.272383689999999845 1
1.655780199999999924 4.070902819999999700 0.999321699000000008 1
1.681190130000000060 3.791873219999999822 1.762894509999999970 1
1.702204229999999985 3.388069390000000070 2.436388019999999877 1
0.199364066000000006 4.405178549999999582 0.931212901999999954 1
0.347576885999999974 4.172039029999999649 1.669065479999999990 1
0.414038628000000020 3.892913099999999904 2.233002190000000109 1
0.508505642000000035 1.987396600000000069 4.013000970000000223 1
1.104792119999999933 2.460506919999999820 3.610795019999999855 1
0.977336227999999974 3.142402650000000186 3.079386229999999891 1
0.966195464000000004 3.684641360000000088 2.408813949999999870 1
1.018536330000000101 4.050600529999999644 1.693433879999999947 1
0.954895972999999954 4.311644549999999576 0.900218426999999988 1
0.526873111999999977 4.378320689999999793 -0.930168032999999950 1
0.249666661000000012 4.155768870000000170 -1.726195570000000012 1
-0.051905121700000001 3.822546720000000064 -2.387036559999999863 1
-0.217016488000000007 2.129803420000000003 -3.966023209999999910 1
-0.174326568999999987 2.837857010000000013 -3.496952770000000044 1
-0.762057542999999948 3.390346050000000222 -2.870073559999999802 1
-0.726927220999999957 3.852278230000000026 -2.223517179999999982 1
-0.516390145000000023 4.136557579999999845 -1.713106269999999931 1
-0.314890325000000026 4.391552929999999577 -0.963124215999999977 1
-0.571150838999999966 4.336981770000000402 1.084838149999999946 1
-0.305149524999999977 4.159730429999999757 1.707637309999999964 1
-0.065545596200000000 3.928128000000000064 2.208622930000000206 1
-0.012849118600000001 3.444067480000000181 2.907014610000000054 1
0.278355061999999986 2.667865990000000131 3.621810200000000091 1
-0.221603109999999992 2.035450219999999977 4.015013689999999968 1
1.262894629999999907 4.221414570000000310 -0.947236835999999971 1
0.946672320000000012 4.052280429999999711 -1.730703120000000039 1
0.597826361999999945 3.821283579999999791 -2.313632489999999819 1
0.487149804999999991 3.262361530000000176 -3.071185589999999799 1
0.173594415000000002 1.331194280000000063 -4.302358149999999881 1
2.475645539999999922 3.670466900000000088 -0.843417466000000005 1
2.274937149999999964 3.459969280000000147 -1.779262190000000077 1
1.948410629999999921 3.190798759999999845 -2.516942499999999860 1
0.778162896999999965 1.931119079999999988 -3.997216700000000067 1
0.970282196999999957 2.564884189999999897 -3.576649429999999796 1
1.203253029999999946 3.568202260000000070 -2.476411820000000041 1
1.614806530000000073 3.807942390000000010 -1.790104630000000085 1
1.877832649999999992 3.948826790000000031 -1.092251059999999940 1
3.050064560000000036 3.137175319999999878 -1.080619219999999991 1
2.829997300000000049 3.053442720000000055 -1.726297140000000008 1
2.597363469999999896 2.757261750000000067 -2.442070960000000124 1
2.193076369999999997 2.377524610000000038 -3.138517620000000008 1
1.546818019999999905 2.012510059999999878 -3.724198819999999799 1
1.248862979999999956 1.572785260000000074 -4.034747600000000212 1
0.946571052000000024 1.185691360000000083 -4.243894100000000336 1
0.480613082999999996 0.592563629000000036 -4.441889289999999768 1
3.449941640000000032 2.748445030000000067 -0.925447165999999988 1
3.257047410000000198 2.621625659999999858 -1.682623269999999893 1
3.031524420000000219 2.477121589999999873 -2.232986449999999845 1
4.165801049999999783 1.446160319999999944 -0.931246758000000008 1
3.905075790000000158 1.476039410000000052 -1.698290709999999981 1
3.543564320000000212 1.493333940000000082 -2.350660560000000121 1
1.576588270000000014 1.191349629999999937 -4.050623889999999783 1
2.224083659999999796 1.450557950000000096 -3.641680000000000028 1
2.947263720000000031 1.796931510000000065 -2.897787810000000075 1
3.315005059999999837 2.119530680000000000 -2.197915080000000021 1
3.609321829999999842 2.133211370000000162 -1.653694629999999943 1
3.851223229999999997 2.166800980000000099 -0.886314869000000005 1
4.340736390000000000 0.672742485999999973 -1.008922220000000092 1
4.088490489999999866 0.784883380000000019 -1.726471780000000011 1
3.782174589999999892 0.915982187000000003 -2.273462299999999825 1
3.317828659999999985 0.666320741000000050 -2.976664299999999930 1
2.682707070000000193 0.857504724999999968 -3.518560649999999956 1
2.023742439999999920 0.498943418000000027 -3.996000770000000202 1
1.246417399999999898 0.527106285000000008 -4.298965449999999855 1
4.392891879999999638 -0.099722310900000000 -1.002525330000000103 1
4.149600979999999772 0.031700886800000001 -1.758495570000000008 1
3.793600559999999788 0.217073738999999988 -2.423628330000000108 1
4.335931780000000124 -0.835111201000000025 -0.902654945999999958 1
4.118773459999999886 -0.686146557000000046 -1.696292640000000018 1
3.765970949999999817 -0.607846259999999972 -2.400101180000000056 1
3.261098150000000029 -0.412571102000000023 -3.083427190000000095 1
2.587067370000000199 -0.049167450500000001 -3.690144300000000044 1
2.034163239999999817 -0.109771094999999999 -4.020277499999999726 1
0.789245485999999996 -0.116169639000000005 -4.435774799999999907 1
1.539028880000000044 -0.132545321999999993 -4.233948709999999949 1
3.757838730000000016 -1.162330990000000064 -2.200030570000000019 1
3.994086269999999939 -1.322737220000000047 -1.615593309999999949 1
4.140211110000000083 -1.558266640000000036 -0.861948669000000001 1
-3.676042559999999959 -0.941311299999999962 -2.431695459999999809 1
-4.048443790000000320 -0.841031194000000037 -1.793117520000000020 1
-4.292471889999999846 -0.830586731000000023 -1.094216110000000075 1
-4.422868249999999612 -0.781652390999999946 -0.373839109999999974 1
-4.433792590000000367 -0.713342786000000006 0.380955725999999995 1
-4.319312100000000321 -0.617905854999999948 1.128820780000000079 1
-4.063720230000000377 -0.485975802000000012 1.887459750000000103 1
-3.628381969999999956 -0.749140024000000015 2.566346409999999967 1
-3.233196500000000029 -0.527486026000000052 3.095270399999999977 1
-2.659998180000000101 -0.204171225000000012 3.632523060000000026 1
-2.074344159999999881 0.079942956600000004 4.000400540000000227 1
-1.455143209999999909 0.427418440999999982 4.244098659999999690 1
-2.034805299999999928 0.779285729000000038 3.945222620000000013 1
-2.596643690000000060 0.754694997999999950 3.605603690000000139 1
-3.313770770000000088 0.604096352999999975 2.994409800000000121 1
-3.777301549999999786 0.885738432000000020 2.293460370000000026 1
-4.071671010000000202 0.840274751000000042 1.740095850000000111 1
-4.295908449999999767 0.839484691999999977 1.073748710000000051 1
-4.421538349999999618 0.792247116999999945 0.367209434999999973 1
-4.430695059999999685 0.727810084999999996 -0.389527707999999973 1
-4.310391899999999943 0.638781249999999967 -1.151077270000000041 1
-4.043295379999999994 0.514818788000000027 -1.923337099999999911 1
-3.591130499999999781 0.795539320000000050 -2.604495759999999827 1
-3.171314479999999936 0.625887692000000051 -3.140625480000000191 1
-2.579144240000000199 0.366694628999999994 -3.677777770000000057 1
-2.079714539999999889 0.037731330799999997 -3.998232600000000136 1
-1.344917179999999934 -0.016903448799999998 -4.301559450000000062 1
-3.520239829999999959 1.506276849999999889 2.377297159999999909 1
-3.865470409999999912 1.516881589999999891 1.752058389999999966 1
-4.099277970000000160 1.527487159999999955 1.084067459999999983 1
-4.228923799999999567 1.516032339999999978 0.361039995999999974 1
-4.244794370000000150 1.462757469999999893 -0.393144696999999987 1
-4.143271450000000300 1.359870080000000092 -1.138663170000000058 1
-3.942140339999999910 1.222505570000000041 -1.810389400000000037 1
-3.666524170000000193 1.164003010000000060 -2.348232750000000202 1
-0.684821605999999972 0.574753523000000044 4.417372229999999789 1
-1.623181460000000076 1.224161859999999935 4.022338869999999567 1
-2.184695479999999801 1.534877899999999906 3.630944250000000206 1
-2.907048940000000137 1.824184660000000013 2.921286820000000173 1
-3.278934959999999954 2.133638139999999961 2.238006589999999907 1
-3.561494109999999935 2.145563600000000015 1.739200000000000079 1
-3.789523840000000199 2.185021400000000114 1.085214970000000001 1
-3.920899869999999954 2.192714449999999982 0.362005204000000025 1
-3.942943810000000049 2.147186989999999795 -0.394059627999999995 1
-3.857719420000000010 2.032361509999999871 -1.140178799999999937 1
-3.695507290000000111 1.841483470000000011 -1.806838390000000016 1
-3.529291870000000220 1.608949659999999948 -2.295186039999999927 1
-3.061442609999999842 1.540610430000000086 -2.926873449999999988 1
-2.392953400000000119 1.190756080000000106 -3.628825430000000019 1
-1.716560239999999959 0.746410966000000009 -4.099852560000000423 1
-0.682269275000000008 0.211219922000000004 -4.449988369999999804 1
-1.131133909999999965 1.027084110000000106 4.240063189999999871 1
-2.976133579999999945 2.526922700000000077 2.251619339999999969 1
-3.186578509999999920 2.683458569999999987 1.719670650000000078 1
-3.382831340000000075 2.775278810000000096 1.080175279999999960 1
-3.506849289999999897 2.807799099999999992 0.361623882999999979 1
-3.534651039999999966 2.768322229999999884 -0.393870384000000018 1
-3.461644409999999894 2.650026079999999951 -1.143188829999999934 1
-3.316635370000000194 2.441769359999999889 -1.830352900000000060 1
-3.171698810000000091 2.113260749999999799 -2.405609130000000206 1
-0.982455133999999952 0.604726075999999946 -4.356786249999999860 1
-1.164552089999999929 1.531841280000000083 4.075510030000000228 1
-1.446862459999999961 2.093163969999999985 3.719913239999999899 1
-2.093812230000000163 2.492469069999999842 3.117057799999999990 1
-2.518193239999999999 2.831857920000000028 2.439627649999999814 1
-2.726032969999999889 3.124768969999999868 1.765520449999999908 1
-2.891882900000000145 3.281176090000000212 1.087840319999999972 1
-3.000679490000000005 3.343154189999999915 0.362964243000000020 1
-3.031459089999999801 3.311797620000000109 -0.393386006000000010 1
-2.973260400000000025 3.189591169999999920 -1.139618519999999968 1
-2.858156919999999879 2.975732559999999971 -1.813409810000000011 1
-2.695143460000000157 2.690238480000000099 -2.410667660000000101 1
-2.580484150000000199 2.304670100000000055 -2.888268950000000057 1
-1.980874060000000103 2.061318159999999899 -3.484193560000000023 1
-1.626816510000000049 1.488490819999999992 -3.930695060000000129 1
-1.854619620000000024 3.282125950000000181 2.469926360000000098 1
-2.156860350000000093 3.510763410000000029 1.826196549999999919 1
-2.319609400000000043 3.695146799999999843 1.130398749999999897 1
-2.411326410000000031 3.787662270000000220 0.389383792999999978 1
-2.445255519999999905 3.766844750000000186 -0.379613309999999982 1
-2.411519769999999951 3.636706590000000183 -1.127580400000000038 1
-2.339511390000000191 3.408531899999999837 -1.794741389999999992 1
-2.302384379999999897 3.118931770000000103 -2.298650030000000122 1
-0.578122496999999957 1.370177149999999955 4.254513740000000155 1
-0.823985755000000042 1.944170710000000080 3.981676579999999799 1
-0.592422128000000048 2.606046440000000075 3.629057410000000150 1
-1.176621200000000034 3.131043200000000137 3.020700450000000092 1
-1.267400150000000059 3.647547480000000064 2.324132919999999825 1
-1.546006559999999919 3.814316509999999827 1.836668849999999908 1
-1.700734729999999972 3.993740320000000121 1.212451820000000069 1
-1.749557019999999907 4.126422409999999985 0.473485111999999986 1
-1.782079699999999933 4.126747609999999788 -0.326568424999999996 1
-1.793810130000000003 3.988296270000000199 -1.090063690000000030 1
-1.776378510000000022 3.751242879999999946 -1.756461379999999961 1
-1.724922419999999956 3.434006929999999791 -2.354727029999999832 1
-1.904360290000000067 2.870904920000000082 -2.905824659999999948 1
-1.048205730000000058 2.609085799999999900 -3.522277120000000039 1
-1.156758189999999908 1.958534479999999967 -3.890829319999999925 1
0.033400211499999999 0.863244115999999950 4.423368929999999644 1
-0.641969144000000047 3.783231740000000176 2.363796470000000038 1
-0.932748914000000040 4.029200549999999659 1.791095730000000108 1
-1.176460030000000101 4.143856050000000124 1.325480580000000019 1
-1.056777599999999984 4.331760410000000228 0.656941175000000044 1
-1.021378040000000098 4.384762290000000284 -0.207720577999999989 1
-1.114655970000000051 4.245023250000000026 -1.024606700000000092 1
-1.199016690000000107 3.999405859999999979 -1.696941969999999911 1
-1.251606229999999931 3.726381060000000023 -2.204555749999999925 1
-0.849072515999999999 1.307781220000000078 -4.228626730000000222 1
-0.323236047999999998 0.677143037000000003 -4.444040300000000165 1
-0.298606931999999992 -0.811092555999999965 4.423286440000000042 1
-0.504348754999999982 -1.425254229999999955 4.245795730000000212 1
-1.274921179999999987 -3.582905769999999990 2.418648720000000196 1
-1.201640730000000046 -3.961653710000000217 1.781532880000000096 1
-1.123638389999999987 -4.232855319999999644 1.064364190000000043 1
-1.031727080000000019 -4.381698609999999938 0.220813139999999991 1
-1.047801729999999987 -4.329435830000000429 -0.686000763999999985 1
-1.188972590000000107 -4.117045880000000047 -1.395986680000000035 1
-1.006567360000000022 -3.952214720000000181 -1.918155430000000106 1
-0.894090593000000045 -3.621258019999999966 -2.529741529999999905 1
-0.596105753999999988 -3.291454079999999838 -3.020511389999999796 1
-0.626313746000000005 -2.615858320000000070 -3.616284849999999995 1
-0.212166055999999992 -1.971229909999999919 -4.047436239999999685 1
-1.086339350000000037 -1.758256789999999903 4.005109309999999923 1
-0.934845448000000023 -2.481542829999999977 3.644243480000000091 1
-1.776576399999999945 -2.957423930000000034 2.899986269999999866 1
-1.932065609999999989 -3.398919110000000021 2.242090699999999881 1
-1.876012680000000099 -3.703708649999999825 1.753744240000000065 1
-1.858748319999999898 -3.959810500000000122 1.085106490000000035 1
-1.822576999999999892 -4.109882350000000351 0.315564304999999989 1
-1.775560859999999908 -4.111421589999999959 -0.506059825000000019 1
-1.723679780000000106 -3.966587779999999785 -1.267915249999999938 1
-1.595890159999999947 -3.773080349999999861 -1.878696439999999912 1
-1.425815939999999893 -3.556223389999999984 -2.373357299999999892 1
-0.474302857999999994 -1.360210059999999999 -4.270523070000000310 1
-0.289655655999999984 -0.774479567999999952 -4.430438040000000299 1
-2.355418209999999846 -3.128564599999999807 2.230827090000000013 1
-2.451705689999999827 -3.370038749999999972 1.715948220000000024 1
-2.499932770000000026 -3.591023680000000162 1.080456019999999961 1
-2.502691510000000008 -3.731986280000000100 0.348299831000000004 1
-2.451459410000000005 -3.756916050000000062 -0.434083133999999982 1
-2.334985490000000219 -3.665292260000000191 -1.194141979999999936 1
-2.136358500000000049 -3.508815530000000127 -1.853829860000000052 1
-1.857869980000000032 -3.368221999999999827 -2.348595140000000026 1
-1.603812220000000011 -2.899665830000000000 -3.054868939999999977 1
-1.395623800000000081 -2.116102220000000145 -3.726505759999999778 1
-0.909333645999999995 -1.757219670000000011 -4.049418450000000114 1
-1.141435500000000047 -0.972126900999999988 4.250246520000000139 1
-1.734194400000000025 -1.342890259999999891 3.937221769999999843 1
-1.992908480000000093 -1.991201039999999978 3.517944570000000049 1
-2.575767040000000119 -2.317630289999999871 2.882102489999999850 1
-2.720266819999999974 -2.706191060000000093 2.364144329999999794 1
-2.933973550000000152 -2.946152689999999907 1.739104269999999897 1
-3.050137519999999824 -3.137377739999999804 1.079825040000000014 1
-3.089022159999999850 -3.262319800000000214 0.357366055000000016 1
-3.047026400000000024 -3.295814280000000096 -0.407109290000000013 1
-2.909916640000000054 -3.240611789999999992 -1.159017090000000083 1
-2.676719900000000152 -3.129036430000000202 -1.832157849999999977 1
-2.343760730000000070 -2.975003479999999811 -2.443079950000000000 1
-3.202362299999999884 -2.108030320000000124 2.369300369999999933 1
-3.373243089999999889 -2.409113409999999789 1.769153119999999912 1
-3.518249030000000221 -2.596757409999999933 1.091454860000000027 1
-3.582184550000000023 -2.710808749999999989 0.363277167000000012 1
-3.549356700000000142 -2.749120950000000008 -0.396105945000000015 1
-3.405589340000000131 -2.722063780000000044 -1.142291670000000092 1
-3.157104250000000167 -2.659263610000000000 -1.809284330000000107 1
-2.850278379999999778 -2.609196190000000026 -2.319592479999999846 1
-2.645702120000000157 -2.149518490000000170 -2.948275799999999780 1
-2.032033440000000191 -1.779423949999999977 -3.607906579999999863 1
-1.505667209999999923 -1.478829739999999893 -3.982276919999999887 1
-1.958225129999999981 -0.659821510000000000 4.005307669999999653 1
-2.496372220000000031 -1.065417770000000042 3.597986940000000189 1
-3.118341920000000211 -1.478141900000000009 2.898885969999999812 1
-3.571798320000000082 -1.575779800000000064 2.252037759999999889 1
-3.741223569999999832 -1.799116020000000038 1.754687670000000033 1
-3.898510219999999915 -1.977121350000000000 1.097774739999999971 1
-3.976371050000000018 -2.089048619999999801 0.369930177999999998 1
-3.949017290000000013 -2.137280940000000129 -0.387032062000000010 1
-3.802921529999999883 -2.138911250000000042 -1.129312040000000072 1
-3.549278970000000033 -2.126085999999999920 -1.787421820000000050 1
-3.209671970000000041 -2.101696009999999948 -2.365032670000000170 1
-0.860066831000000032 -0.189756572000000012 4.420042510000000036 1
-1.516390090000000024 -0.266123712000000012 4.235827920000000191 1
-3.710939880000000191 -1.112767700000000026 2.302861930000000168 1
-3.979667660000000051 -1.169923660000000032 1.762391449999999971 1
-4.170950409999999664 -1.304828520000000047 1.101406099999999944 1
-4.263088230000000145 -1.413805009999999918 0.373810291000000017 1
-4.240401269999999556 -1.479478599999999977 -0.377678840999999987 1
-4.097759250000000186 -1.508780720000000075 -1.115548970000000084 1
-3.841952560000000183 -1.539906140000000034 -1.783420919999999965 1
-3.540471319999999977 -1.626933809999999925 -2.265093559999999950 1
-3.220566990000000018 -1.403524640000000101 -2.823219060000000002 1
-2.666691059999999780 -1.153497699999999959 -3.445388560000000044 1
-1.939658399999999894 -0.818815708000000031 -3.984942440000000197 1
-1.042405489999999935 -0.940568029999999999 -4.282665249999999979 1
-0.689827560999999978 -0.316037952999999983 -4.442606930000000176 1
-0.052677240200000003 -0.055435817700000001 -4.506290439999999897 1
-0.006155158860000000 0.005943467840000000 4.506930829999999943 1
2.316018820000000034 3.866336350000000088 0.000000000000000000 1
4.501682279999999814 -0.217613459000000009 0.000000000000000000 1
3.307070490000000085 -0.356918752000000006 3.041117190000000026 1
-3.173417329999999925 -0.419309527000000015 -3.172712090000000096 1
1.421920539999999900 2.891238689999999778 -3.151409150000000103 1
0.107223130999999999 1.508874540000000097 4.245503430000000300 1
2.522661690000000068 0.979926646000000012 3.603945260000000150 1
0.374254256000000007 2.582494019999999946 -3.674664500000000000 1
-2.525353669999999884 -0.403450935999999982 -3.711107249999999969 1
2.304552080000000114 -1.153690099999999941 3.697369099999999964 1
2.602206949999999797 -3.657289979999999829 0.406507343000000021 1
2.579518320000000031 2.106015440000000183 3.036986109999999961 1
2.549599170000000026 -3.656826730000000136 -0.663070976999999950 1
4.443304539999999747 0.632861376000000031 0.411135375000000025 1
4.463476179999999793 0.472480624999999987 -0.408216923000000009 1
2.206596370000000196 3.908587690000000059 0.407890766999999987 1
3 352 351 362
3 64 65 76
3 84 83 94
3 377 378 362
3 411 231 412
3 364 363 379
3 110 109 98
3 24 0 33
3 81 74 73
3 331 318 330
3 111 433 112
3 316 303 315
3 29 36 37
3 385 399 400
3 352 362 363
3 303 316 304
3 28 27 220
3 314 327 315
3 194 205 204
3 265 254 241
3 201 200 190
3 400 386 385
3 334 287 276
3 150 156 157
3 203 204 199
3 50 42 41
3 339 66 338
3 92 99 100
3 127 136 128
3 281 280 293
3 375 350 349
3 192 181 191
3 401 400 411
3 199 198 208
3 170 155 151
3 75 74 88
3 145 325 133
3 427 417 227
3 308 309 297
3 18 247 248
3 301 324 334
3 209 210 202
3 16 17 248
3 419 395 394
3 42 35 34
3 234 409 398
3 6 149 157
3 215 209 208
3 148 154 142
3 163 160 176
3 127 122 126
3 209 215 219
3 10 126 122
3 395 372 371
3 165 160 164
3 211 212 200
3 327 167 328
3 325 423 133
3 73 72 80
3 312 311 172
3 98 86 97
3 333 332 164
3 329 317 316
3 251 250 275
3 218 224 29
3 361 360 420
3 168 169 150
3 370 393 394
3 381 365 380
3 419 394 418
3 15 158 166
3 394 393 418
3 393 392 406
3 424 439 8
3 406 391 405
3 338 353 339
3 225 226 31
3 363 378 379
3 424 185 7
3 361 46 59
3 405 390 404
3 390 389 404
3 386 378 377
3 138 137 126
3 295 283 282
3 380 389 381
3 67 61 62
3 212 223 222
3 287 334 335
3 277 253 287
3 355 366 356
3 348 58 57
3 9 130 138
3 404 389 403
3 431 181 161
3 323 161 324
3 388 387 402
3 389 388 403
3 40 436 52
3 389 380 388
3 202 203 199
3 202 189 188
3 26 29 30
3 402 387 401
3 177 192 193
3 419 418 432
3 359 358 369
3 2 91 79
3 61 67 68
3 329 328 167
3 65 66 62
3 203 196 195
3 47 59 39
3 386 400 401
3 345 71 70
3 213 206 438
3 27 28 38
3 409 234 233
3 268 269 256
3 55 54 70
3 400 410 411
3 300 275 274
3 430 135 134
3 359 370 345
3 251 252 432
3 221 223 211
3 380 365 364
3 387 388 379
3 364 354 353
3 331 165 332
3 6 173 158
3 261 249 248
3 380 364 379
3 95 101 105
3 129 120 119
3 387 378 386
3 376 377 351
3 398 385 376
3 141 140 148
3 379 378 387
3 390 381 389
3 386 377 385
3 353 363 364
3 211 201 210
3 279 266 265
3 364 365 354
3 352 353 338
3 330 166 331
3 340 339 354
3 354 339 353
3 405 415 416
3 340 67 339
3 274 261 273
3 265 266 254
3 349 373 374
3 114 108 113
3 76 77 64
3 105 433 96
3 86 77 76
3 285 297 298
3 391 392 383
3 365 355 354
3 366 355 365
3 73 74 61
3 67 66 339
3 408 237 396
3 66 65 338
3 79 90 80
3 65 62 75
3 247 259 260
3 86 98 78
3 78 63 77
3 86 78 77
3 85 78 98
3 120 112 426
3 258 245 257
3 240 236 237
3 145 152 429
3 104 101 100
3 111 110 98
3 120 129 430
3 145 125 134
3 119 120 426
3 149 167 168
3 186 8 194
3 118 107 117
3 124 123 128
3 124 117 123
3 430 129 135
3 123 127 128
3 122 11 10
3 392 393 384
3 205 198 204
3 105 101 104
3 204 198 199
3 81 89 88
3 39 222 223
3 190 200 191
3 130 139 140
3 5 69 53
3 169 151 150
3 149 150 157
3 151 155 156
3 289 263 288
3 355 356 341
3 150 149 168
3 17 16 228
3 333 163 321
3 267 266 280
3 53 3 5
3 422 46 361
3 313 170 326
3 216 217 213
3 312 313 289
3 163 162 323
3 313 326 314
3 311 312 289
3 126 10 138
3 44 45 51
3 388 402 403
3 94 93 101
3 241 236 240
3 241 235 236
3 289 288 311
3 152 172 429
3 247 18 19
3 73 80 81
3 49 50 56
3 288 278 310
3 252 276 253
3 278 262 310
3 121 120 430
3 118 117 124
3 402 401 412
3 129 119 118
3 437 11 116
3 245 244 257
3 122 123 116
3 202 201 189
3 5 3 60
3 3 72 60
3 206 197 11
3 61 60 73
3 125 111 121
3 425 115 13
3 114 103 102
3 238 263 239
3 15 167 149
3 358 343 357
3 177 193 335
3 52 51 40
3 326 168 327
3 111 125 110
3 327 314 326
3 431 162 176
3 215 214 218
3 289 290 264
3 313 290 289
3 23 233 234
3 6 15 149
3 55 56 45
3 387 386 401
3 307 295 306
3 31 26 30
3 5 68 341
3 328 315 327
3 43 52 2
3 167 327 168
3 363 353 352
3 176 162 163
3 343 344 69
3 43 53 54
3 102 13 115
3 425 213 438
3 324 161 334
3 302 303 291
3 230 18 229
3 385 398 399
3 328 316 315
3 314 302 313
3 315 302 314
3 398 409 399
3 291 265 290
3 253 421 420
3 407 238 408
3 28 37 38
3 28 29 37
3 196 187 195
3 34 33 41
3 29 28 219
3 209 220 210
3 224 225 30
3 28 220 219
3 219 218 29
3 102 115 114
3 216 425 13
3 216 226 225
3 217 225 224
3 219 215 218
3 14 32 226
3 13 226 216
3 102 14 13
3 4 0 24
3 103 100 99
3 42 49 35
3 41 40 51
3 22 21 233
3 14 4 32
3 33 34 24
3 1 2 52
3 41 42 34
3 72 73 60
3 35 25 34
3 54 53 69
3 50 49 42
3 48 56 57
3 37 49 48
3 176 182 431
3 39 223 27
3 372 348 347
3 222 193 212
3 372 360 348
3 347 346 370
3 395 420 372
3 59 58 348
3 218 217 224
3 217 214 213
3 206 11 438
3 219 220 209
3 206 213 214
3 207 198 197
3 425 216 213
3 116 106 437
3 207 206 214
3 207 197 206
3 205 9 10
3 205 197 198
3 204 203 195
3 186 178 8
3 194 8 9
3 10 197 205
3 185 178 179
3 194 204 195
3 203 202 196
3 179 180 184
3 405 404 415
3 299 286 298
3 439 7 146
3 418 417 427
3 259 247 246
3 237 408 238
3 9 205 194
3 19 246 247
3 393 406 417
3 290 265 264
3 190 189 201
3 195 187 186
3 187 178 186
3 9 138 10
3 131 138 130
3 89 84 88
3 302 290 313
3 426 108 119
3 11 197 10
3 374 373 396
3 328 329 316
3 303 292 291
3 288 310 311
3 337 373 349
3 56 48 49
3 383 382 391
3 399 410 400
3 399 409 410
3 92 4 99
3 55 71 56
3 410 232 411
3 25 31 32
3 403 402 413
3 129 118 124
3 231 411 232
3 212 211 223
3 265 291 279
3 91 434 82
3 34 25 24
3 398 397 235
3 324 300 323
3 248 17 18
3 19 230 231
3 370 369 384
3 230 412 231
3 136 435 129
3 170 171 154
3 17 228 229
3 0 436 33
3 232 20 231
3 153 142 154
3 282 283 269
3 231 20 19
3 187 179 178
3 12 438 11
3 38 47 39
3 363 362 378
3 347 371 372
3 365 381 366
3 272 273 260
3 27 223 221
3 169 168 326
3 142 435 132
3 260 259 272
3 81 80 89
3 427 251 432
3 420 421 361
3 260 273 261
3 19 20 246
3 252 251 276
3 425 438 12
3 292 279 291
3 170 313 312
3 217 218 214
3 0 92 82
3 145 144 152
3 246 20 245
3 337 78 336
3 225 217 216
3 103 99 102
3 263 238 278
3 254 242 241
3 407 262 238
3 380 379 388
3 125 121 134
3 423 325 262
3 278 288 263
3 312 171 170
3 153 154 171
3 151 156 150
3 424 178 185
3 157 146 7
3 156 146 157
3 8 178 424
3 6 157 7
3 107 118 108
3 113 426 105
3 120 121 112
3 112 121 111
3 84 90 83
3 74 75 62
3 96 87 88
3 74 81 88
3 65 75 76
3 66 67 62
3 67 340 68
3 60 61 68
3 68 340 341
3 341 340 355
3 214 215 207
3 341 342 5
3 341 356 342
3 356 357 342
3 368 384 369
3 366 367 356
3 366 382 367
3 391 382 390
3 367 382 383
3 367 368 357
3 392 391 406
3 383 368 367
3 371 347 370
3 394 371 370
3 306 294 305
3 57 58 48
3 50 41 51
3 56 50 45
3 50 51 45
3 436 40 33
3 0 1 436
3 114 113 103
3 55 44 54
3 43 3 53
3 44 43 54
3 79 72 3
3 3 43 2
3 90 84 89
3 72 79 80
3 44 52 43
3 80 90 89
3 84 95 88
3 95 96 88
3 12 437 425
3 425 106 115
3 96 95 105
3 110 125 109
3 262 325 310
3 423 85 109
3 391 390 405
3 85 98 109
3 238 239 237
3 152 144 153
3 271 258 270
3 115 106 107
3 174 158 173
3 239 264 240
3 265 241 240
3 255 242 254
3 56 346 57
3 35 49 36
3 266 267 254
3 112 433 105
3 267 268 255
3 293 294 281
3 407 336 423
3 159 175 160
3 375 398 376
3 266 279 280
3 392 384 383
3 292 280 279
3 267 280 281
3 350 351 65
3 285 298 286
3 180 183 184
3 280 292 293
3 91 83 90
3 293 304 305
3 319 320 307
3 207 208 198
3 176 183 428
3 15 330 329
3 308 297 296
3 244 22 243
3 170 151 169
3 143 135 435
3 306 318 319
3 381 390 382
3 303 302 315
3 113 104 103
3 319 331 332
3 165 164 332
3 331 166 165
3 7 185 173
3 164 163 333
3 417 416 227
3 12 11 437
3 160 163 164
3 211 200 201
3 177 181 192
3 177 334 161
3 347 57 346
3 394 395 371
3 361 421 422
3 57 347 348
3 360 372 420
3 224 30 29
3 209 199 208
3 192 200 212
3 221 220 27
3 220 221 211
3 182 176 428
3 202 199 209
3 202 210 201
3 220 211 210
3 428 190 182
3 275 276 251
3 181 431 182
3 181 190 191
3 398 235 234
3 259 271 272
3 319 307 306
3 296 295 307
3 272 285 286
3 146 156 147
3 267 281 268
3 282 268 281
3 77 63 64
3 308 321 309
3 243 22 23
3 254 267 255
3 242 23 241
3 20 232 21
3 403 413 414
3 236 397 396
3 117 116 123
3 167 15 329
3 337 336 373
3 290 302 291
3 414 228 415
3 284 297 285
3 408 373 407
3 253 277 421
3 420 419 253
3 274 299 300
3 322 163 323
3 299 322 300
3 275 300 301
3 301 276 275
3 260 248 247
3 286 274 273
3 377 362 351
3 194 195 186
3 401 411 412
3 137 132 136
3 294 293 305
3 395 419 420
3 18 230 19
3 418 427 432
3 252 419 432
3 276 301 334
3 252 253 419
3 274 275 250
3 274 249 261
3 421 277 422
3 276 287 253
3 416 417 406
3 109 133 423
3 264 265 240
3 170 169 326
3 385 377 376
3 260 261 248
3 301 300 324
3 248 249 16
3 250 249 274
3 16 250 427
3 251 427 250
3 18 17 229
3 238 262 278
3 227 16 427
3 412 413 402
3 21 245 20
3 404 414 415
3 16 227 228
3 414 404 403
3 412 230 413
3 416 415 227
3 228 414 229
3 406 405 416
3 229 414 413
3 22 233 23
3 23 242 243
3 226 13 14
3 75 88 76
3 242 255 243
3 272 271 285
3 147 155 148
3 356 367 357
3 258 257 270
3 259 246 258
3 271 284 285
3 250 16 249
3 273 272 286
3 236 396 237
3 180 179 188
3 299 298 322
3 128 129 124
3 134 121 430
3 413 230 229
3 300 322 323
3 177 161 181
3 277 335 422
3 287 335 277
3 335 334 177
3 422 335 193
3 192 212 193
3 383 384 368
3 159 166 158
3 21 232 233
3 408 396 373
3 360 59 348
3 62 61 74
3 180 189 428
3 188 196 202
3 255 268 256
3 289 264 263
3 282 269 268
3 22 244 21
3 245 21 244
3 256 244 243
3 243 255 256
3 269 257 256
3 245 258 246
3 258 271 259
3 283 270 269
3 306 295 294
3 296 283 295
3 294 295 282
3 294 282 281
3 68 5 60
3 296 284 283
3 283 284 270
3 244 256 257
3 125 133 109
3 269 270 257
3 119 108 118
3 11 122 116
3 235 241 23
3 127 123 122
3 409 233 410
3 234 235 23
3 293 292 304
3 235 397 236
3 292 303 304
3 332 320 319
3 393 370 384
3 4 24 32
3 305 318 306
3 183 174 184
3 393 417 418
3 316 317 304
3 304 317 305
3 318 317 330
3 318 331 319
3 15 166 330
3 429 172 310
3 312 172 171
3 159 158 174
3 160 165 159
3 185 184 173
3 6 158 15
3 176 160 175
3 182 190 181
3 190 428 189
3 200 192 191
3 49 37 36
3 35 36 26
3 26 31 25
3 296 297 284
3 226 32 31
3 24 25 32
3 79 91 90
3 1 52 436
3 41 33 40
3 307 308 296
3 322 309 321
3 1 434 2
3 161 162 431
3 323 162 161
3 0 434 1
3 3 2 79
3 94 83 93
3 96 97 87
3 83 91 82
3 48 47 37
3 59 46 39
3 39 27 38
3 222 46 422
3 58 59 47
3 58 47 48
3 47 38 37
3 31 30 225
3 29 26 36
3 25 35 26
3 439 424 7
3 360 361 59
3 321 308 320
3 422 193 222
3 222 39 46
3 309 298 297
3 45 44 55
3 44 51 52
3 342 69 5
3 163 322 321
3 357 343 342
3 69 342 343
3 368 358 357
3 344 343 358
3 298 309 322
3 368 369 358
3 358 359 344
3 359 369 370
3 70 54 69
3 94 95 84
3 344 70 69
3 333 321 320
3 71 345 346
3 370 346 345
3 359 345 344
3 346 56 71
3 70 71 55
3 344 345 70
3 381 382 366
3 88 87 76
3 184 174 173
3 97 96 433
3 87 97 86
3 173 6 7
3 338 351 352
3 78 85 336
3 398 375 397
3 318 305 317
3 175 174 183
3 338 65 351
3 397 374 396
3 166 159 165
3 349 350 63
3 375 351 350
3 270 284 271
3 329 330 317
3 397 375 374
3 349 374 375
3 95 94 101
3 325 145 429
3 376 351 375
3 76 87 86
3 63 350 64
3 65 64 350
3 78 337 63
3 63 337 349
3 85 423 336
3 407 373 336
3 103 104 100
3 175 159 174
3 92 100 93
3 82 92 93
3 4 92 0
3 4 14 99
3 428 183 180
3 102 99 14
3 2 434 91
3 175 183 176
3 0 82 434
3 82 93 83
3 93 100 101
3 196 188 187
3 426 112 105
3 240 237 239
3 189 180 188
3 107 108 114
3 113 108 426
3 116 117 106
3 107 106 117
3 114 115 107
3 425 437 106
3 140 131 130
3 179 184 185
3 146 139 439
3 187 188 179
3 143 435 142
3 127 126 137
3 129 435 135
3 132 137 131
3 138 131 137
3 131 140 141
3 141 132 131
3 311 310 172
3 233 232 410
3 310 325 429
3 152 171 172
3 153 171 152
3 127 137 136
3 141 142 132
3 134 143 144
3 132 435 136
3 141 148 142
3 264 239 263
3 134 144 145
3 143 153 144
3 135 143 134
3 128 136 129
3 142 153 143
3 8 130 9
3 8 439 139
3 155 170 154
3 156 155 147
3 8 139 130
3 155 154 148
3 139 147 140
3 146 147 139
3 140 147 148
3 97 433 111
3 145 133 125
3 98 97 111
3 208 207 215
3 228 227 415
3 407 423 262
3 340 354 355
3 332 333 320
3 286 299 274
3 320 308 307
3 113 105 104
